<?xml version="1.0" encoding="utf-8"?>
<!-- Generator: Adobe Illustrator 27.0.1, SVG Export Plug-In . SVG Version: 6.00 Build 0)  -->
<svg version="1.1" id="Layer_1" xmlns="http://www.w3.org/2000/svg" xmlns:xlink="http://www.w3.org/1999/xlink" x="0px" y="0px"
	 viewBox="0 0 1920 1080" style="enable-background:new 0 0 1920 1080;" xml:space="preserve">
<style type="text/css">
	.st0{fill-rule:evenodd;clip-rule:evenodd;fill:#F2F2F2;}
	.st1{fill:#F2F2F2;}
</style>
<g>
	<g>
		<g>
			<path class="st0" d="M326.19,479.77c4.96,0,8.98,3.78,8.98,8.45c0,4.67-4.02,8.45-8.98,8.45c-4.96,0-8.98-3.78-8.98-8.45
				C317.21,483.56,321.23,479.77,326.19,479.77L326.19,479.77z M265.85,479.77c4.96,0,8.98,3.78,8.98,8.45
				c0,4.67-4.02,8.45-8.98,8.45c-4.96,0-8.98-3.78-8.98-8.45C256.87,483.56,260.89,479.77,265.85,479.77L265.85,479.77z
				 M391.18,479.77c-4.96,0-8.98,3.78-8.98,8.45c0,4.67,4.02,8.45,8.98,8.45c4.96,0,8.98-3.78,8.98-8.45
				C400.16,483.56,396.14,479.77,391.18,479.77L391.18,479.77z M451.52,479.77c-4.96,0-8.98,3.78-8.98,8.45
				c0,4.67,4.02,8.45,8.98,8.45c4.96,0,8.98-3.78,8.98-8.45C460.5,483.56,456.48,479.77,451.52,479.77L451.52,479.77z
				 M336.31,503.23H216.37c3.47-10.78,5.43-17.64,8.39-27.87l15.8-0.8l48.71-2.49l-48.71-2.48l-14.95-0.76
				c1.11-7.1,2.87-14,5.2-20.65c-69.68-18.58-56.84-61.63-69.66-117.54c-7.1-30.94-16.69-45.11-46.65-46.9
				c82.42-14.08,63.22,87.87,93.72,109.99c10.33,7.49,24.92,11.11,43.77,10.87c9.2,0.19,19.68-0.36,31.45-1.66
				c-8.58-0.04-16.38-0.35-23.42-0.93c20.59-20.62,48.57-34.63,79.96-38.28v98.41h18.19h1.01h18.19v-98.41
				c31.4,3.65,59.37,17.66,79.96,38.28c-7.03,0.58-14.84,0.89-23.42,0.93c11.77,1.29,22.25,1.85,31.45,1.66
				c18.85,0.25,33.44-3.38,43.77-10.87c30.5-22.12,11.29-124.08,93.72-109.99c-29.97,1.79-39.56,15.96-46.65,46.9
				c-12.82,55.91,0.02,98.96-69.66,117.54c2.33,6.65,4.09,13.55,5.2,20.65l-14.95,0.76l-48.71,2.48l48.71,2.49l15.8,0.8
				c2.96,10.23,4.92,17.09,8.39,27.87H381.06c-0.35,21.06,1.29,41.03,5.65,59.51l-28.02,17.43l0,0l0,0l0,0l0,0l-28.02-17.43
				C335.03,544.26,336.66,524.29,336.31,503.23L336.31,503.23L336.31,503.23z"/>
		</g>
		<g>
			<path class="st0" d="M358.68,627.38c-10.73,0-21.47-0.79-31-2.37c1.61,5.64,5.5,10.65,16.05,12.51
				c-3.95,17.38-31.96,20.15-45.05-22.13c11.74-1.64,24.37-2.14,35.2-4.61c7.07-1.62,12.83-1.51,17.41,0.05
				c4.8,1.63,9.99,1.63,14.78,0c4.58-1.56,10.34-1.67,17.41-0.05c10.83,2.47,23.46,2.97,35.2,4.61
				c-13.09,42.27-41.09,39.5-45.05,22.13c10.55-1.86,14.45-6.87,16.05-12.51C380.15,626.59,369.42,627.38,358.68,627.38
				L358.68,627.38L358.68,627.38z M358.68,589.2c-24.84-6.81-59.61-2.73-80.82,12.06c-4.51,3.14-9.96,4.32-15.76,3.4
				c-5.8-0.92-10.33-3.68-13.1-7.98c-13.64-21.22-15.83-45.78-22.54-69.34c-1.71-6-6.21-11.21-9.32-16.82
				c0.47,14.45,2.06,29.72,2.3,45.09c0.28,18.22-3.86,26.55,2.03,42.25c0.12-3.29,1.09-6.58,2.91-9.87
				c0.39,1.73,0.81,3.45,1.26,5.16c2.15,13.94-0.71,23.21,6.15,37.4c0.5-3.43,1.63-6.56,4.51-8.82l0.11,0.22
				c-0.86,17.92,5.33,34.28,16.52,48.09c0.07-5.83,1.22-11.12,4.64-15.29c1.63,21.11,5.25,32.34,25.79,62.43
				c-0.35-5.63,0.48-11.15,1.85-14.54c4.69,12.84,7.69,20.4,24.46,38.2c-0.04-3.11,1.21-5.4,2.87-8.94
				c1.29,20,26.18,30.82,46.13,40.86c19.96-10.04,44.84-20.86,46.13-40.86c1.65,3.54,2.9,5.83,2.87,8.94
				c16.76-17.8,19.77-25.36,24.46-38.2c1.37,3.39,2.21,8.91,1.85,14.54c20.54-30.09,24.16-41.31,25.79-62.43
				c3.43,4.17,4.57,9.46,4.64,15.29c11.19-13.81,17.38-30.17,16.52-48.09l0.11-0.22c2.88,2.26,4.01,5.38,4.51,8.82
				c6.86-14.2,4-23.46,6.15-37.4c0.44-1.71,0.86-3.43,1.25-5.16c1.82,3.29,2.79,6.58,2.91,9.87c5.88-15.7,1.75-24.02,2.03-42.25
				c0.23-15.37,1.82-30.65,2.3-45.09c-3.11,5.61-7.61,10.82-9.32,16.82c-6.71,23.56-8.89,48.12-22.54,69.34
				c-2.76,4.3-7.29,7.06-13.09,7.98c-5.8,0.92-11.26-0.26-15.76-3.4C418.29,586.47,383.53,582.39,358.68,589.2L358.68,589.2
				L358.68,589.2z"/>
		</g>
	</g>
	<g>
		<path class="st1" d="M677.9,489.73c-11.88,0-26.73-0.13-39.82,0.54c-13.63,0.81-16.87,0.13-16.87-3.51
			c0-8.91,25.92,0.81,25.92-39.96c0-40.77-25.78-31.18-25.78-40.09c0-3.51,2.29-3.92,16.74-3.1c7.56,0.54,16.33,0.81,25.38,0.94
			c11.61-0.13,19.57-0.4,25.51-0.94c14.31-0.81,16.74-0.4,16.74,3.1c0,8.91-25.78-0.68-25.38,40.09c0,20.79,8.78,32.53,24.16,32.53
			c30.51,0,26.19-32.8,36.18-32.8c4.59,0,6.21,5.8,6.21,29.43c0,11.74-3.24,16.06-11.88,16.06
			C717.99,492.02,694.64,489.73,677.9,489.73z"/>
		<path class="st1" d="M757.68,447.07c0-27.54,28.89-44.41,66.15-44.41c37.39,0,66.28,16.87,66.28,44.41
			c0,27.4-28.89,44.28-66.28,44.28C786.57,491.35,757.68,474.47,757.68,447.07z M845.7,447.07c0-24.03-9.85-31.99-21.87-31.99
			c-11.88,0-21.6,7.96-21.6,31.99c0,24.16,9.72,31.86,21.6,31.86C835.84,478.93,845.7,471.23,845.7,447.07z"/>
		<path class="st1" d="M929.81,489.73c-11.88,0-18.09,1.21-26.32,1.21c-5.81,0-7.96-0.95-7.96-3.64c0-8.91,25.92,0.54,25.92-40.36
			c0-40.77-25.78-31.18-25.78-40.09c0-2.56,2.02-3.51,7.29-3.51c7.02,0,11.2,1.35,24.84,1.35c13.63,0,25.24-1.35,32.67-1.35
			c9.99,0,9.45,10.53,24.97,28.35c9.18,10.53,19.3,17.68,22.68,17.68c1.62,0,2.29-1.75,2.29-5c0-36.04-22-27.94-22-37.26
			c0-2.83,2.83-3.65,7.02-3.65c5.4,0,11.88,1.22,22.68,1.22c11.47,0,18.49-1.22,22.54-1.22c4.86,0,7.56,1.22,7.56,3.38
			c0,8.91-21.73-0.67-21.73,40.09c0,17.95,1.89,28.75,1.89,37.66c0,4.05-1.75,6.08-5.94,5.8c-2.7-0.13-8.77-0.67-15.12-0.67
			c-7.56,0-16.06,0.67-19.57,0.67c-8.64,0-7.29-9.85-22.14-28.48c-10.8-13.63-20.38-22.41-24.3-22.41c-2.83,0-3.78,4.72-3.78,10.8
			c0,36.04,26.59,28.08,26.59,36.99c0,2.7-2.97,3.92-6.48,3.92C950.87,491.21,941.96,489.73,929.81,489.73z"/>
		<path class="st1" d="M1147.29,484.6c-5.8,0-16.2,6.75-35.5,6.75c-36.85,0-60.88-18.22-60.88-44.14c0-26.73,23.76-44.14,59.4-44.14
			c23.76,0,31.32,4.72,39.42,4.72c4.46,0,8.91-4.59,13.63-4.59c5,0,9.04,5.26,9.04,17.01c0,11.88-3.78,17.14-9.04,17.01
			c-8.91-0.27-12.55-21.06-40.77-21.06c-16.87,0-28.62,12.01-28.62,31.72c0,18.9,12.15,29.97,24.84,29.97
			c12.28,0,16.33-4.72,16.33-9.85c0.13-4.86-2.97-7.56-7.15-9.58c-4.46-2.16-9.58-3.24-13.5-4.86c-3.24-1.35-4.32-2.83-4.05-4.86
			c0.27-2.29,1.75-3.92,8.37-3.92c9.31,0,19.17,1.48,31.99,1.48c12.55,0,30.24-1.48,37.26-1.48c4.59,0,6.75,1.08,6.75,3.51
			c0,7.69-22.54,3.64-22.54,26.59v2.57c0,4.72,0.81,14.17-5.13,14.17C1161.33,491.62,1153.09,484.6,1147.29,484.6z"/>
		<path class="st1" d="M1192.11,487.3c0-8.91,25.92,0.94,25.92-39.82c0-41.17-25.78-31.59-25.78-40.5c0-4.05,4.86-3.78,16.74-3.1
			c7.02,0.4,14.85,0.94,24.03,0.81c9.31-0.14,13.09-0.14,20.11-0.81c10.53-0.94,15.39-0.94,15.39,3.1c0,6.75-18.63,6.75-18.63,21.6
			c0,7.69,6.21,11.47,20.65,11.47c13.9,0,19.57-3.65,19.57-11.47c0-15.66-18.22-14.85-18.22-21.6c0-4.05,4.86-4.05,15.39-3.1
			c7.02,0.67,10.8,0.67,20.11,0.81c9.18,0.13,17.01-0.41,24.03-0.81c11.88-0.67,16.74-0.94,16.74,3.1c0,8.91-25.78-0.68-25.78,40.5
			c0,40.77,25.92,30.91,25.92,39.82c0,4.18-5,4.32-16.87,3.38c-7.16-0.54-14.98-1.08-24.03-0.95c-9.18,0.13-12.96,0.41-20.11,0.95
			c-10.53,0.81-15.52,0.81-15.52-3.38c0-6.75,18.22-7.29,18.22-22.95c0-7.83-5.67-11.47-19.57-11.47
			c-14.44,0-20.65,3.78-20.65,11.47c0,14.85,18.63,16.2,18.63,22.95c0,4.18-4.72,4.18-15.25,3.38c-7.16-0.54-10.93-0.81-20.11-0.95
			c-9.04,0.13-16.88,0.41-24.03,0.95C1197.1,491.62,1192.11,491.48,1192.11,487.3z"/>
		<path class="st1" d="M1352.35,447.07c0-27.54,28.89-44.41,66.15-44.41c37.39,0,66.28,16.87,66.28,44.41
			c0,27.4-28.89,44.28-66.28,44.28C1381.24,491.35,1352.35,474.47,1352.35,447.07z M1440.37,447.07c0-24.03-9.86-31.99-21.87-31.99
			c-11.88,0-21.6,7.96-21.6,31.99c0,24.16,9.72,31.86,21.6,31.86C1430.52,478.93,1440.37,471.23,1440.37,447.07z"/>
		<path class="st1" d="M1577.39,473.8l-2.7-5.8c-2.43-5.13-6.75-13.36-14.04-13.36c-6.48,0-10.26,4.18-10.26,10.67
			c0,15.39,20.25,14.44,20.25,21.73c0,2.7-1.62,3.78-5.94,3.78c-3.38,0-16.2-1.08-32.13-1.08c-13.5,0-28.08,1.08-34.42,1.08
			c-5.81,0-7.96-1.08-7.96-3.78c0-8.91,25.92,0.95,25.92-39.82c0-40.77-25.78-31.18-25.78-40.09c0-2.56,1.89-3.51,7.15-3.51
			c7.02,0,17.01,1.21,31.32,1.21c11.2,0,23.49-0.81,32.94-1.21c50.22-1.89,64.66,6.21,64.66,23.22c0,14.17-9.31,19.71-23.89,21.73
			c-0.95,0.14-1.49,0.4-1.49,1.21s0.41,1.22,1.75,1.48c17.95,3.65,11.21,28.21,20.52,28.21c4.18,0,5.67-4.05,5.67-8.64
			c0-7.15-2.83-12.15-2.83-15.39c0-2.29,2.16-3.51,5.8-3.51c8.77,0,16.2,8.37,16.2,18.49c0,13.91-12.82,20.92-30.37,20.92h-3.51
			C1590.49,491.35,1582.79,485.41,1577.39,473.8z M1582.66,430.33c0-8.5-6.21-14.44-16.47-14.44c-10.39,0-16.33,4.59-16.33,14.31
			c0,9.45,6.34,15.12,15.25,15.12C1576.45,445.31,1582.66,439.51,1582.66,430.33z"/>
		<path class="st1" d="M1685.13,489.73c-11.88,0-18.09,1.21-26.32,1.21c-5.81,0-7.96-0.95-7.96-3.64c0-8.91,25.92,0.54,25.92-40.36
			c0-40.77-25.78-31.18-25.78-40.09c0-2.56,2.02-3.51,7.29-3.51c7.02,0,11.2,1.35,24.84,1.35c13.63,0,25.24-1.35,32.67-1.35
			c9.99,0,9.45,10.53,24.97,28.35c9.18,10.53,19.3,17.68,22.68,17.68c1.62,0,2.29-1.75,2.29-5c0-36.04-22-27.94-22-37.26
			c0-2.83,2.83-3.65,7.02-3.65c5.4,0,11.88,1.22,22.68,1.22c11.47,0,18.49-1.22,22.54-1.22c4.86,0,7.56,1.22,7.56,3.38
			c0,8.91-21.73-0.67-21.73,40.09c0,17.95,1.89,28.75,1.89,37.66c0,4.05-1.75,6.08-5.94,5.8c-2.7-0.13-8.77-0.67-15.12-0.67
			c-7.56,0-16.06,0.67-19.57,0.67c-8.64,0-7.29-9.85-22.14-28.48c-10.8-13.63-20.38-22.41-24.3-22.41c-2.83,0-3.78,4.72-3.78,10.8
			c0,36.04,26.59,28.08,26.59,36.99c0,2.7-2.97,3.92-6.48,3.92C1706.19,491.21,1697.28,489.73,1685.13,489.73z"/>
		<path class="st1" d="M621.2,649.03c0-8.91,25.92,0.95,25.92-39.82s-25.78-31.18-25.78-40.09c0-2.7,2.02-3.51,7.15-3.51
			c7.02,0,18.76,1.22,33.07,1.22c9.85,0,20.65-0.68,29.02-0.95c43.74-1.35,61.15,4.46,61.15,22.27c0,12.01-6.61,17.55-20.79,19.3
			c-2.7,0.27-3.24,0.67-3.24,1.35c0,0.81,0.54,1.08,3.24,1.62c14.98,2.83,23.49,9.18,23.49,21.06c0,18.9-18.49,22.27-63.85,20.92
			c-8.23-0.27-16.06-0.67-28.08-0.67c-13.36,0-27,1.08-33.34,1.08C623.63,652.81,621.2,651.86,621.2,649.03z M709.22,590.44
			c0-7.42-5.27-12.69-14.45-12.69c-9.31,0-14.85,3.91-14.85,12.55c0,8.37,5.94,13.37,13.9,13.37
			C703.95,603.67,709.22,598.4,709.22,590.44z M709.22,627.83c0-7.96-5.27-13.23-15.39-13.23c-7.96,0-13.9,4.99-13.9,13.36
			c0,8.64,5.53,12.55,14.85,12.55C703.95,640.52,709.22,635.26,709.22,627.83z"/>
		<path class="st1" d="M761.73,649.03c0-8.91,25.92,0.95,25.92-39.82s-25.78-31.18-25.78-40.09c0-2.7,2.02-3.51,7.15-3.51
			c7.02,0,18.76,1.22,33.07,1.22c9.85,0,20.65-0.68,29.02-0.95c43.74-1.35,61.15,4.46,61.15,22.27c0,12.01-6.61,17.55-20.79,19.3
			c-2.7,0.27-3.24,0.67-3.24,1.35c0,0.81,0.54,1.08,3.24,1.62c14.98,2.83,23.49,9.18,23.49,21.06c0,18.9-18.49,22.27-63.85,20.92
			c-8.23-0.27-16.06-0.67-28.08-0.67c-13.36,0-27,1.08-33.34,1.08C764.16,652.81,761.73,651.86,761.73,649.03z M849.75,590.44
			c0-7.42-5.27-12.69-14.45-12.69c-9.31,0-14.85,3.91-14.85,12.55c0,8.37,5.94,13.37,13.9,13.37
			C844.48,603.67,849.75,598.4,849.75,590.44z M849.75,627.83c0-7.96-5.27-13.23-15.39-13.23c-7.96,0-13.9,4.99-13.9,13.36
			c0,8.64,5.53,12.55,14.85,12.55C844.48,640.52,849.75,635.26,849.75,627.83z"/>
		<path class="st1" d="M909.69,609.07c0-27.54,28.75-44.41,65.88-44.41c37.26,0,66.15,16.87,66.15,44.41
			c0,9.45-2.83,16.74-9.45,22.27c-1.08,0.81-1.21,2.02,0.41,2.97c2.43,1.48,5.67,2.16,8.24,2.16c5.26,0,9.04-3.38,9.04-7.83
			c0-6.48-3.1-8.91-3.1-11.61c0-2.29,2.29-3.51,6.21-3.51c9.45,0,17.41,8.37,17.41,18.49c0,13.9-12.01,21.33-31.72,21.33
			c-9.99,0-15.66-2.16-24.16-5.94c-2.03-0.94-4.86-0.4-7.02,0.41c-9.58,3.51-21.46,5.54-31.99,5.54
			C938.44,653.35,909.69,636.47,909.69,609.07z M980.56,610.42c3.38,0,9.58,0.95,13.36,1.89c2.56,0.81,3.1,0,3.24-1.35
			c0.13-1.48,0.13-2.83,0.13-4.59c0-22-9.72-29.29-21.73-29.29c-11.74,0-21.46,7.29-21.46,29.29c0,5,0.27,8.24,1.08,11.88
			c0.54,1.89,2.56,1.89,3.78,0.54C964.5,612.98,971.38,610.42,980.56,610.42z M990.96,632.69c0-5.13-5.4-7.42-11.47-7.42
			c-6.62,0-11.47,2.29-11.47,7.42c0,5.4,4.86,7.56,11.47,7.56C985.56,640.25,990.96,638.09,990.96,632.69z"/>
	</g>
</g>
</svg>
